<svg xmlns="http://www.w3.org/2000/svg" viewBox="0 0 142.1 174.84"><defs><style>.cls-1,.cls-2,.cls-3{fill:none;stroke:#fff;stroke-miterlimit:10;}.cls-1{stroke-width:4px;}.cls-2{stroke-width:5.41px;}.cls-3{stroke-width:4.71px;}</style></defs><g id="Layer_2" data-name="Layer 2"><g id="over"><path class="cls-1" d="M126.74,42.09c-3.42-2.89-11.81-10-19.36-13a57,57,0,0,0-39.86-1A62.44,62.44,0,0,0,24.31,86a60.48,60.48,0,0,0,5.6,27.2c2.27,5,6.48,12.95,12.25,18.48,7.94,7.61,18.81,13.2,24.63,15a66.28,66.28,0,0,0,16.84,2.93,58.4,58.4,0,0,0,23.07-4.3,56.35,56.35,0,0,0,19.67-12.81"/><path class="cls-2" d="M140.35,26c-4.6-3.92-15.87-13.62-26-17.69C89-1.89,68.51,4.47,60.77,7a84,84,0,0,0-33,19.91A86.87,86.87,0,0,0,2.71,85.62a83,83,0,0,0,7.52,37c3,6.86,8.71,17.61,16.46,25.12,10.67,10.35,25.28,18,33.1,20.41a87.89,87.89,0,0,0,22.63,4c7,.29,18.09-.73,31-5.84,12.18-4.82,21.73-12.29,26.43-17.42"/><path class="cls-3" d="M133.25,34.06c-4-3.39-13.88-11.8-22.76-15.33a66.84,66.84,0,0,0-46.83-1.14A73.8,73.8,0,0,0,34.84,34.84,74.88,74.88,0,0,0,12.9,85.74a71.3,71.3,0,0,0,6.57,32c2.67,5.94,7.62,15.25,14.39,21.76,9.34,9,22.11,15.56,28.94,17.69a77.73,77.73,0,0,0,19.8,3.45,68.55,68.55,0,0,0,27.1-5.06c10.65-4.18,19-10.65,23.12-15.1"/></g></g></svg>