<svg xmlns="http://www.w3.org/2000/svg" viewBox="0 0 105.72 128.64"><defs><style>.cls-1{fill:none;stroke:#fff;stroke-miterlimit:10;stroke-width:4px;}</style></defs><g id="Layer_2" data-name="Layer 2"><g id="over"><path class="cls-1" d="M104.43,19.12c-3.42-2.88-11.8-10-19.36-13a57,57,0,0,0-39.86-1A62.43,62.43,0,0,0,2,63,60.5,60.5,0,0,0,7.6,90.19c2.27,5,6.49,13,12.25,18.47,7.94,7.62,18.81,13.21,24.63,15a66.35,66.35,0,0,0,16.84,2.93,58.4,58.4,0,0,0,23.07-4.3,56.17,56.17,0,0,0,19.68-12.82"/></g></g></svg>