<svg xmlns="http://www.w3.org/2000/svg" viewBox="0 0 124.23 151.53"><defs><style>.cls-1{fill:none;stroke:#fff;stroke-miterlimit:10;stroke-width:4.71px;}</style></defs><g id="Layer_2" data-name="Layer 2"><g id="over"><path class="cls-1" d="M122.71,22.53c-4-3.4-13.87-11.81-22.75-15.34A66.9,66.9,0,0,0,53.13,6.05,73.57,73.57,0,0,0,2.36,74.2a71.44,71.44,0,0,0,6.57,32c2.68,5.94,7.63,15.25,14.4,21.76,9.33,9,22.1,15.56,28.94,17.69a77.29,77.29,0,0,0,19.79,3.45,68.57,68.57,0,0,0,27.11-5.06c10.65-4.18,19-10.65,23.11-15.1"/></g></g></svg>