<svg xmlns="http://www.w3.org/2000/svg" viewBox="0 0 96.96 171.99"><defs><style>.cls-1{fill:none;stroke:#fff;stroke-miterlimit:10;stroke-width:5px;}</style></defs><g id="Layer_2" data-name="Layer 2"><g id="over"><path class="cls-1" d="M96.41,2.93C45,3.4,24.17,3.19,20.19,2.66a18.08,18.08,0,0,0-4.8,0,14.18,14.18,0,0,0-8,3.2,14,14,0,0,0-4.26,8.26,16.35,16.35,0,0,0-.27,4C3.14,23,3,74.34,2.6,149a32.41,32.41,0,0,0,0,5.06,24.77,24.77,0,0,0,1.07,5.87A13.23,13.23,0,0,0,6.07,165,12,12,0,0,0,13,168.69a14.15,14.15,0,0,0,3.73.27l80.21.53"/><path class="cls-1" d="M96.68,158.3,17,157.76h0a3.82,3.82,0,0,1-2.66-1.06,4.22,4.22,0,0,1-.8-3.2c.25-3,.19-58.21,0-135.12a3.3,3.3,0,0,1,.8-2.93,3.17,3.17,0,0,1,3.2-.8H96.15"/><path class="cls-1" d="M96.41,26.11l-71.15-.27L25,95.13q-.12,26-.23,52l72-.26"/><path class="cls-1" d="M86.55,72.48H27.39"/><path class="cls-1" d="M86.55,83.94l-59.43-.26"/><path class="cls-1" d="M86.82,95.14H27.65"/></g></g></svg>