<svg xmlns="http://www.w3.org/2000/svg" viewBox="0 0 102.37 173.08"><defs><style>.cls-1,.cls-2,.cls-3{fill:none;stroke:#fff;stroke-miterlimit:10;}.cls-1{stroke-width:5px;}.cls-2{stroke-width:4.6px;}.cls-3{stroke-width:4.14px;}</style></defs><g id="Layer_2" data-name="Layer 2"><g id="over"><path class="cls-1" d="M2.5,0l.73,157.91a12.07,12.07,0,0,0,0,2.72,11.1,11.1,0,0,0,3.16,6.78,11.91,11.91,0,0,0,6.78,3,15.41,15.41,0,0,0,2.78.19c3.76-.1,37.85-.08,86,0"/><path class="cls-2" d="M12.94.23V152.56a6.47,6.47,0,0,0,2.78,6.32,6.09,6.09,0,0,0,4,.76h82.61"/><path class="cls-3" d="M24.31.48q-.14,74.15-.25,148.28h77.55"/></g></g></svg>