<svg xmlns="http://www.w3.org/2000/svg" viewBox="0 0 102.55 173.08"><defs><style>.cls-1,.cls-2,.cls-3{fill:none;stroke:#fff;stroke-miterlimit:10;}.cls-1{stroke-width:5px;}.cls-2{stroke-width:4.6px;}.cls-3{stroke-width:4.14px;}</style></defs><g id="Layer_2" data-name="Layer 2"><g id="over"><path class="cls-1" d="M2.5,0l.73,157.91a12.07,12.07,0,0,0,0,2.72,11.1,11.1,0,0,0,3.16,6.78,11.91,11.91,0,0,0,6.78,3,15.41,15.41,0,0,0,2.78.19c3.76-.1,37.85-.08,86,0"/><path class="cls-2" d="M12.54.12l.66,148a11.27,11.27,0,0,0,0,2.55,10.59,10.59,0,0,0,2.85,6.36,10.5,10.5,0,0,0,6.13,2.78,12.16,12.16,0,0,0,2.5.18c3.4-.09,34.19-.07,77.67,0"/><path class="cls-3" d="M24.46.05,25,137.62A10.78,10.78,0,0,0,25,140a10.17,10.17,0,0,0,2.48,5.91,8.92,8.92,0,0,0,5.33,2.59,10,10,0,0,0,2.18.16c2.95-.09,29.72-.07,67.52,0"/></g></g></svg>