<svg xmlns="http://www.w3.org/2000/svg" viewBox="0 0 155.99 174.29"><defs><style>.cls-1{fill:none;stroke:#fff;stroke-miterlimit:10;stroke-width:5px;}</style></defs><g id="Layer_2" data-name="Layer 2"><g id="over"><path class="cls-1" d="M2.5,174.27c.79-102,.76-142.8.78-148.33,0-.63.13-6.64,1.27-10A19.47,19.47,0,0,1,9.2,9.1a22,22,0,0,1,6.55-4.37,17.49,17.49,0,0,1,8.11-1.56,17.76,17.76,0,0,1,9,3.44,23,23,0,0,1,5.31,5c9.22,11.91,70.23,97.92,89.5,125.36.5.71,2.43,5,3.43,4.68.8-.23.46-3.16.31-8.73-.09-3.33.07-6.65,0-10-.17-8.89,0-28.95,0-58.63,0-14.68.11-36.63-.13-63.31"/><path class="cls-1" d="M13,173.28c.79-102,.67-144.71,1.13-150.22.37-4.52,5.19-7.26,7-7.72,6.55-1.71,13.71,9.6,24.28,25.22,10.81,16,22.26,31.54,33.12,47.5,19.72,29,11,14.56,26.18,36.74,9.55,14,23.54,35.1,31,32.9a10,10,0,0,0,3.84-2.4c3.14-3.29,2.81-8.09,2.64-9.61q-.09-41.19-.17-82.38-.08-31.65-.14-63.3"/><path class="cls-1" d="M24.81,172.54l.3-137.79V33.23A30.31,30.31,0,0,1,30,37.8,28.85,28.85,0,0,1,33,42.07c7.14,12,63.48,86.66,77.73,110a56.53,56.53,0,0,0,8.54,10.37c3.73,3.6,6.62,6.32,11.27,7.31a18.23,18.23,0,0,0,11-1.22c7.48-3.26,10.09-10.33,10.67-11.88.79-2.14,1.1-4,1.22-11,.08-4.51.07-10.75-.31-18.29V.92"/></g></g></svg>